<svg xmlns="http://www.w3.org/2000/svg" viewBox="0 0 200 170" width="200" height="170">
  <defs>
    <linearGradient id="g" x1="0%" y1="0%" x2="0%" y2="100%">
      <stop offset="0%" stop-color="#fff"/>
      <stop offset="100%" stop-color="#fce7f3"/>
    </linearGradient>
  </defs>
  <!-- Soleil stylisé en arrière-plan -->
  <circle cx="100" cy="65" r="22" fill="#fbbf24" stroke="#d97706" stroke-width="2.5"/>
  <g stroke="#d97706" stroke-width="2.5" stroke-linecap="round">
    <line x1="100" y1="30" x2="100" y2="38"/>
    <line x1="100" y1="92" x2="100" y2="100"/>
    <line x1="65" y1="65" x2="73" y2="65"/>
    <line x1="127" y1="65" x2="135" y2="65"/>
    <line x1="76" y1="41" x2="82" y2="47"/>
    <line x1="118" y1="83" x2="124" y2="89"/>
    <line x1="124" y1="41" x2="118" y2="47"/>
    <line x1="82" y1="83" x2="76" y2="89"/>
  </g>
  <!-- Goutte de crème blanche en bas -->
  <path d="M 60 110 Q 70 95, 100 100 Q 130 95, 140 110 Q 145 125, 140 135 Q 100 145, 60 135 Q 55 125, 60 110 Z"
        fill="url(#g)" stroke="#a855f7" stroke-width="2.5"/>
  <ellipse cx="80" cy="115" rx="15" ry="3" fill="#fff" opacity="0.7"/>
  <ellipse cx="120" cy="115" rx="10" ry="3" fill="#fff" opacity="0.7"/>
</svg>