<svg xmlns="http://www.w3.org/2000/svg" viewBox="0 0 200 170" width="200" height="170">
  <defs>
    <linearGradient id="g" x1="0%" y1="0%" x2="0%" y2="100%">
      <stop offset="0%" stop-color="#fce7f3"/>
      <stop offset="100%" stop-color="#f9a8d4"/>
    </linearGradient>
  </defs>
  <path d="M 100 25 Q 90 40, 90 55 Q 90 70, 100 70 Q 110 70, 110 55 Q 110 40, 100 25 Z"
        fill="url(#g)" stroke="#a855f7" stroke-width="2"/>
  <path d="M 65 60 Q 55 75, 55 90 Q 55 105, 65 105 Q 75 105, 75 90 Q 75 75, 65 60 Z"
        fill="url(#g)" stroke="#a855f7" stroke-width="2"/>
  <path d="M 135 60 Q 125 75, 125 90 Q 125 105, 135 105 Q 145 105, 145 90 Q 145 75, 135 60 Z"
        fill="url(#g)" stroke="#a855f7" stroke-width="2"/>
  <ellipse cx="96" cy="45" rx="3" ry="6" fill="#fff" opacity="0.7"/>
  <ellipse cx="61" cy="80" rx="2.5" ry="5" fill="#fff" opacity="0.7"/>
  <ellipse cx="131" cy="80" rx="2.5" ry="5" fill="#fff" opacity="0.7"/>
  <path d="M 100 120 L 103 128 L 112 128 L 105 134 L 108 142 L 100 137 L 92 142 L 95 134 L 88 128 L 97 128 Z"
        fill="#7c3aed"/>
</svg>