<svg xmlns="http://www.w3.org/2000/svg" viewBox="0 0 200 170" width="200" height="170">
  <defs>
    <linearGradient id="g" x1="0%" y1="0%" x2="0%" y2="100%">
      <stop offset="0%" stop-color="#fff"/>
      <stop offset="100%" stop-color="#fce7f3"/>
    </linearGradient>
  </defs>
  <ellipse cx="100" cy="20" rx="55" ry="9" fill="#7c3aed" stroke="#7c3aed" stroke-width="2"/>
  <rect x="45" y="17" width="110" height="20" fill="#a78bfa" stroke="#7c3aed" stroke-width="2"/>
  <ellipse cx="100" cy="35" rx="55" ry="9" fill="#c4b5fd" stroke="#7c3aed" stroke-width="2"/>
  <path d="M 50 40 L 50 150 Q 50 160, 60 160 L 140 160 Q 150 160, 150 150 L 150 40 Z"
        fill="url(#g)" stroke="#7c3aed" stroke-width="2.5"/>
  <ellipse cx="100" cy="100" rx="50" ry="6" fill="#a855f7"/>
  <rect x="60" y="50" width="6" height="40" fill="#fff" opacity="0.7"/>
  <circle cx="80" cy="125" r="3" fill="#fff" opacity="0.7"/>
  <circle cx="120" cy="130" r="2.5" fill="#fff" opacity="0.7"/>
  <circle cx="100" cy="140" r="2" fill="#fff" opacity="0.7"/>
  <circle cx="160" cy="40" r="22" fill="#22c55e" stroke="#fff" stroke-width="3"/>
  <path d="M 150 40 L 158 48 L 172 32" stroke="#fff" stroke-width="4" fill="none" stroke-linecap="round" stroke-linejoin="round"/>
</svg>