<svg xmlns="http://www.w3.org/2000/svg" viewBox="0 0 200 170" width="200" height="170">
  <defs>
    <linearGradient id="g" x1="0%" y1="0%" x2="0%" y2="100%">
      <stop offset="0%" stop-color="#fff"/>
      <stop offset="100%" stop-color="#e9d5ff"/>
    </linearGradient>
  </defs>
  <rect x="78" y="15" width="44" height="20" rx="3" fill="#7c3aed" stroke="#7c3aed" stroke-width="2"/>
  <path d="M 75 35 L 70 45 L 130 45 L 125 35 Z" fill="#a78bfa" stroke="#7c3aed" stroke-width="2"/>
  <rect x="85" y="45" width="30" height="10" fill="#c4b5fd" stroke="#7c3aed" stroke-width="2"/>
  <path d="M 65 55 L 65 150 Q 65 160, 75 160 L 125 160 Q 135 160, 135 150 L 135 55 Z"
        fill="url(#g)" stroke="#7c3aed" stroke-width="2.5"/>
  <circle cx="55" cy="40" r="4" fill="#fff" stroke="#7c3aed" stroke-width="1.5"/>
  <circle cx="48" cy="45" r="3" fill="#fff" stroke="#7c3aed" stroke-width="1.5"/>
  <circle cx="60" cy="32" r="3.5" fill="#fff" stroke="#7c3aed" stroke-width="1.5"/>
  <rect x="73" y="70" width="5" height="80" fill="#fff" opacity="0.7"/>
  <circle cx="160" cy="40" r="22" fill="#22c55e" stroke="#fff" stroke-width="3"/>
  <path d="M 150 40 L 158 48 L 172 32" stroke="#fff" stroke-width="4" fill="none" stroke-linecap="round" stroke-linejoin="round"/>
</svg>