<svg xmlns="http://www.w3.org/2000/svg" viewBox="0 0 200 170" width="200" height="170">
  <defs>
    <linearGradient id="g" x1="0%" y1="0%" x2="0%" y2="100%">
      <stop offset="0%" stop-color="#86efac"/>
      <stop offset="100%" stop-color="#16a34a"/>
    </linearGradient>
  </defs>
  <ellipse cx="100" cy="40" rx="55" ry="10" fill="#a78bfa" stroke="#7c3aed" stroke-width="2"/>
  <rect x="45" y="35" width="110" height="20" fill="#a78bfa" stroke="#7c3aed" stroke-width="2"/>
  <ellipse cx="100" cy="55" rx="55" ry="10" fill="#c4b5fd" stroke="#7c3aed" stroke-width="2"/>
  <!-- Pot rempli de pâte verte -->
  <path d="M 50 60 L 50 150 Q 50 160, 60 160 L 140 160 Q 150 160, 150 150 L 150 60 Z"
        fill="url(#g)" stroke="#7c3aed" stroke-width="2.5"/>
  <rect x="60" y="70" width="6" height="70" fill="#fff" opacity="0.4"/>
  <!-- Petits points/granulés dans le masque -->
  <circle cx="80" cy="100" r="2" fill="#16a34a"/>
  <circle cx="100" cy="115" r="1.5" fill="#16a34a"/>
  <circle cx="115" cy="105" r="2" fill="#16a34a"/>
  <circle cx="125" cy="125" r="1.5" fill="#16a34a"/>
  <circle cx="75" cy="130" r="2" fill="#16a34a"/>
  <circle cx="160" cy="40" r="22" fill="#22c55e" stroke="#fff" stroke-width="3"/>
  <path d="M 150 40 L 158 48 L 172 32" stroke="#fff" stroke-width="4" fill="none" stroke-linecap="round" stroke-linejoin="round"/>
</svg>