<svg xmlns="http://www.w3.org/2000/svg" viewBox="0 0 200 170" width="200" height="170">
  <path d="M 50 35 L 55 30 L 60 35 L 65 30 L 70 35 L 75 30 L 80 35 L 85 30 L 90 35 L 95 30 L 100 35 L 105 30 L 110 35 L 115 30 L 120 35 L 125 30 L 130 35 L 135 30 L 140 35 L 145 30 L 150 35"
        fill="#a78bfa" stroke="#7c3aed" stroke-width="2"/>
  <path d="M 50 35 L 50 150 Q 50 160, 60 160 L 140 160 Q 150 160, 150 150 L 150 35 Z"
        fill="#ede9fe" stroke="#7c3aed" stroke-width="2.5"/>
  <path d="M 50 45 L 60 50 L 50 55" fill="#7c3aed"/>
  <line x1="65" y1="85" x2="135" y2="85" stroke="#a855f7" stroke-width="2" opacity="0.7"/>
  <line x1="65" y1="100" x2="120" y2="100" stroke="#a855f7" stroke-width="2" opacity="0.7"/>
  <line x1="65" y1="115" x2="130" y2="115" stroke="#a855f7" stroke-width="2" opacity="0.7"/>
</svg>