<svg xmlns="http://www.w3.org/2000/svg" viewBox="0 0 200 170" width="200" height="170">
  <rect x="85" y="10" width="30" height="18" rx="3" fill="#a78bfa" stroke="#7c3aed" stroke-width="2"/>
  <line x1="92" y1="14" x2="92" y2="24" stroke="#7c3aed" stroke-width="1"/>
  <line x1="100" y1="14" x2="100" y2="24" stroke="#7c3aed" stroke-width="1"/>
  <line x1="108" y1="14" x2="108" y2="24" stroke="#7c3aed" stroke-width="1"/>
  <rect x="92" y="28" width="16" height="10" fill="#c4b5fd" stroke="#7c3aed" stroke-width="2"/>
  <path d="M 70 38 L 70 150 Q 70 160, 75 160 Q 100 163, 125 160 Q 130 160, 130 150 L 130 38 Z"
        fill="#ede9fe" stroke="#7c3aed" stroke-width="2.5"/>
  <line x1="70" y1="155" x2="130" y2="155" stroke="#7c3aed" stroke-width="2"/>
  <line x1="73" y1="158" x2="78" y2="155" stroke="#7c3aed" stroke-width="1.5"/>
  <line x1="83" y1="158" x2="88" y2="155" stroke="#7c3aed" stroke-width="1.5"/>
  <line x1="93" y1="158" x2="98" y2="155" stroke="#7c3aed" stroke-width="1.5"/>
  <line x1="103" y1="158" x2="108" y2="155" stroke="#7c3aed" stroke-width="1.5"/>
  <line x1="113" y1="158" x2="118" y2="155" stroke="#7c3aed" stroke-width="1.5"/>
  <rect x="78" y="50" width="5" height="80" fill="#fff" opacity="0.7"/>
</svg>